<?xml version="1.0" encoding="UTF-8"?>
<svg id="Layer_1" data-name="Layer 1" xmlns="http://www.w3.org/2000/svg" viewBox="0 0 24.82 32.52">
  <defs>
    <style>
      .cls-1 {
        fill: #b4832c;
        stroke: #b4832c;
      }
    </style>
  </defs>
  <g id="Group_28" data-name="Group 28">
    <path id="Path_12" data-name="Path 12" class="cls-1" d="m10.02,17.35h-4.15c-.2,0-.36-.16-.36-.36s.16-.36.36-.36h4.15c.2,0,.36.16.36.36s-.16.36-.36.36"/>
    <path id="Path_13" data-name="Path 13" class="cls-1" d="m10.02,24.56h-4.15c-.2,0-.36-.16-.36-.36s.16-.36.36-.36h4.15c.2,0,.36.16.36.36s-.16.36-.36.36"/>
    <path id="Path_14" data-name="Path 14" class="cls-1" d="m5.78,24.57c-.2,0-.36-.16-.36-.36h0v-7.21c0-.2.16-.36.36-.36s.36.16.36.36h0v7.21c0,.2-.16.36-.36.36h0"/>
    <path id="Path_15" data-name="Path 15" class="cls-1" d="m16.87,24.56c-.15,0-.28-.09-.34-.23l-2.79-7.22c-.07-.19.02-.39.21-.47.19-.07.39.02.47.21l2.44,6.31,2.24-6.32c.07-.19.27-.29.46-.22s.29.27.22.46l-2.56,7.24c-.05.14-.18.24-.33.24h0"/>
    <path id="Path_16" data-name="Path 16" class="cls-1" d="m21.83,32.02h-1.91c-.2,0-.36-.16-.36-.36s.16-.36.36-.36h1.91c.98,0,1.77-.79,1.77-1.77V3c0-.98-.79-1.77-1.77-1.77h-8.29c-.2,0-.36-.16-.36-.36s.16-.36.36-.36h8.29c1.38,0,2.49,1.12,2.49,2.49v26.53c0,1.38-1.12,2.49-2.49,2.49"/>
    <path id="Path_17" data-name="Path 17" class="cls-1" d="m15.7,32.02H2.99c-1.37,0-2.49-1.12-2.49-2.49V6.03c0-.1.05-.2.12-.27L6.58.59c.07-.06.15-.09.24-.09h2.63c.2,0,.36.16.36.36s-.16.36-.36.36h-2.49L1.22,6.19v23.34c0,.98.79,1.77,1.77,1.77h12.71c.2,0,.36.16.36.36s-.16.36-.36.36"/>
    <path id="Path_18" data-name="Path 18" class="cls-1" d="m6.92,6.4H.86c-.2,0-.36-.16-.36-.36s.16-.36.36-.36h5.7V.86c0-.2.16-.36.36-.36s.36.16.36.36h0v5.18c0,.2-.16.36-.36.36h0"/>
  </g>
</svg>