<?xml version="1.0" encoding="UTF-8"?>
<svg id="Layer_1" data-name="Layer 1" xmlns="http://www.w3.org/2000/svg" xmlns:xlink="http://www.w3.org/1999/xlink" viewBox="0 0 26.31 26.31">
  <defs>
    <style>
      .cls-1 {
        fill: #b4832c;
      }

      .cls-1, .cls-2 {
        stroke-width: 0px;
      }

      .cls-2 {
        fill: none;
      }

      .cls-3 {
        clip-path: url(#clippath);
      }
    </style>
    <clipPath id="clippath">
      <rect class="cls-2" width="26.31" height="26.31"/>
    </clipPath>
  </defs>
  <g class="cls-3">
    <g id="Group_23" data-name="Group 23">
      <path id="Path_10" data-name="Path 10" class="cls-1" d="m7.71.09c-1.09.02-2.17.23-3.19.62-.88.33-1.67.85-2.33,1.52-.67.66-1.18,1.45-1.51,2.33C.3,5.59.09,6.67.07,7.76c-.06,1.4-.08,1.85-.07,5.42,0,3.57.02,4.02.09,5.42.02,1.09.23,2.17.62,3.19.33.88.85,1.67,1.52,2.33.66.67,1.46,1.18,2.33,1.51,1.02.38,2.1.59,3.19.6,1.4.06,1.85.08,5.42.07s4.02-.02,5.43-.09c1.09-.03,2.17-.24,3.19-.62,1.77-.69,3.16-2.09,3.84-3.85.38-1.02.59-2.1.6-3.19.06-1.4.08-1.85.07-5.43s-.02-4.02-.09-5.42c-.03-1.09-.24-2.17-.62-3.19-.33-.88-.85-1.67-1.52-2.33-.66-.67-1.45-1.18-2.33-1.51-1.02-.38-2.1-.59-3.19-.6-1.4-.06-1.85-.08-5.42-.07s-4.02.02-5.42.09m.15,23.78c-.83,0-1.66-.16-2.44-.45-.57-.21-1.09-.55-1.52-.98-.44-.42-.78-.94-.99-1.51-.29-.78-.45-1.61-.46-2.44-.07-1.39-.08-1.8-.09-5.32s0-3.93.07-5.32c0-.83.16-1.66.45-2.44.21-.57.54-1.09.98-1.51.42-.44.94-.78,1.51-.99.78-.29,1.61-.45,2.44-.46,1.39-.07,1.8-.08,5.32-.09,3.52,0,3.93,0,5.32.07.83,0,1.66.16,2.44.45.57.21,1.09.54,1.51.98.44.42.78.94.99,1.51.29.78.45,1.61.46,2.44.07,1.39.08,1.8.09,5.32s0,3.93-.07,5.31c0,.83-.16,1.66-.45,2.44-.44,1.15-1.35,2.06-2.49,2.5-.78.29-1.61.45-2.44.46-1.39.07-1.8.08-5.32.09s-3.93,0-5.32-.07M18.59,6.12c0,.87.71,1.58,1.58,1.58.87,0,1.58-.71,1.58-1.58s-.71-1.58-1.58-1.58h0c-.87,0-1.58.71-1.58,1.58m-12.19,7.04c0,3.73,3.04,6.75,6.77,6.74,3.73,0,6.75-3.04,6.74-6.77,0-3.73-3.04-6.75-6.77-6.74-3.73,0-6.75,3.04-6.74,6.77,0,0,0,0,0,0m2.37,0c0-2.42,1.95-4.39,4.38-4.39s4.39,1.95,4.39,4.38c0,2.42-1.95,4.39-4.38,4.39,0,0,0,0,0,0-2.42,0-4.39-1.96-4.39-4.38h0"/>
    </g>
  </g>
</svg>