<?xml version="1.0" encoding="UTF-8"?>
<svg id="Layer_1" data-name="Layer 1" xmlns="http://www.w3.org/2000/svg" viewBox="0 0 34.54 33.01">
  <defs>
    <style>
      .cls-1 {
        fill: #b4832c;
        stroke-width: 0px;
      }
    </style>
  </defs>
  <path id="Path_9" data-name="Path 9" class="cls-1" d="m34.53,33.01v-12.77c0-6.84-3.65-10.02-8.52-10.02-2.74-.11-5.31,1.3-6.67,3.68v-3.16h-7.4c.1,2.09,0,22.27,0,22.27h7.4v-12.44c-.03-.61.05-1.22.24-1.8.57-1.61,2.09-2.7,3.8-2.71,2.68,0,3.75,2.04,3.75,5.03v11.91h7.4,0ZM4.15,7.71c2.12.18,3.99-1.39,4.18-3.51S6.94.2,4.81.02c-.21-.02-.41-.02-.62,0C2.07-.17.2,1.4.01,3.52c-.19,2.12,1.38,3.99,3.51,4.18.19.02.38.02.57,0h.05Zm3.7,25.31V10.75H.45v22.27h7.4Z"/>
</svg>