<?xml version="1.0" encoding="UTF-8"?>
<svg id="Layer_1" data-name="Layer 1" xmlns="http://www.w3.org/2000/svg" viewBox="0 0 30.45 27.59">
  <defs>
    <style>
      .cls-1 {
        fill: #b4832c;
        stroke: #b4832c;
      }
    </style>
  </defs>
  <g id="Group_31" data-name="Group 31">
    <path id="Path_20" data-name="Path 20" class="cls-1" d="m10.39,6.87c-.22,0-.41-.18-.41-.41h0V2.43c0-1.06.85-1.92,1.91-1.93h6.65c1.06,0,1.92.87,1.91,1.93v2.06c0,.22-.18.41-.4.41-.22,0-.41-.18-.41-.4h0v-2.06c0-.61-.49-1.11-1.1-1.11h-6.66c-.61,0-1.1.5-1.1,1.11v4.03c0,.22-.18.41-.41.41h0"/>
    <path id="Path_21" data-name="Path 21" class="cls-1" d="m16.98,16.51c-.22,0-.41-.18-.4-.41,0-.22.18-.4.4-.4,2.99.07,5.95-.5,8.69-1.69,2.23-1.08,3.46-2.55,3.46-4.15v-2.73H1.31v2.73c0,1.6,1.23,3.07,3.46,4.15,2.74,1.19,5.71,1.76,8.69,1.69.22,0,.41.18.4.41,0,.22-.18.4-.4.4-3.11.07-6.19-.53-9.04-1.77-2.53-1.22-3.92-2.95-3.92-4.88v-3.14c0-.22.18-.41.41-.41h28.63c.22,0,.41.18.41.41h0v3.14c0,1.93-1.39,3.66-3.92,4.88-2.85,1.24-5.94,1.84-9.04,1.77"/>
    <path id="Path_22" data-name="Path 22" class="cls-1" d="m29.53,27.09H.91c-.22,0-.41-.18-.41-.41h0v-12.83c0-.22.18-.41.4-.41.22,0,.41.18.41.4h0v12.42h27.82V8.66c0-.22.18-.41.41-.4.22,0,.4.18.4.4v18.03c0,.22-.18.41-.41.41h0"/>
    <path id="Path_23" data-name="Path 23" class="cls-1" d="m26.34,24.13H4.1c-.22,0-.41-.18-.41-.41h0v-2.98c0-.22.18-.41.4-.41.22,0,.41.18.41.4h0v2.58h21.42v-2.58c0-.22.18-.41.4-.41s.41.18.41.4h0v2.99c0,.22-.18.41-.41.41h0"/>
    <path id="Path_24" data-name="Path 24" class="cls-1" d="m17.08,12.8h-3.73c-.22,0-.41-.18-.41-.4s.18-.41.4-.41h3.73c.22,0,.41.18.41.4s-.18.41-.4.41h0"/>
  </g>
</svg>