<?xml version="1.0" encoding="UTF-8"?>
<svg id="Layer_1" data-name="Layer 1" xmlns="http://www.w3.org/2000/svg" xmlns:xlink="http://www.w3.org/1999/xlink" viewBox="0 0 30.49 33">
  <defs>
    <style>
      .cls-1 {
        fill: #b4832c;
      }

      .cls-1, .cls-2 {
        stroke-width: 0px;
      }

      .cls-2 {
        fill: none;
      }

      .cls-3 {
        clip-path: url(#clippath);
      }
    </style>
    <clipPath id="clippath">
      <rect class="cls-2" width="30.49" height="33"/>
    </clipPath>
  </defs>
  <g class="cls-3">
    <g id="Group_22" data-name="Group 22">
      <path id="Path_4" data-name="Path 4" class="cls-1" d="m25.67,0c-1.01-.03-2,.24-2.85.78-.8.56-1.39,1.37-1.67,2.31-.07.2-.12.4-.15.6-.04.24-.08.48-.11.73-.04.33-.06.67-.07,1-.01.39-.02.85-.02,1.4,0,.47,0,.93.02,1.4,0,.33.03.67.07,1,.03.24.06.49.11.73h0c.04.2.09.4.16.6.28.94.87,1.75,1.67,2.31.85.54,1.85.81,2.85.77,1.03.02,2.03-.27,2.89-.83.79-.54,1.36-1.35,1.62-2.27.12-.42.2-.85.24-1.28.05-.55.07-1.11.06-1.66v-1.13c.02-.09-.04-.18-.14-.2-.02,0-.04,0-.06,0h-4.22c-.09-.01-.18.05-.19.14,0,.02,0,.03,0,.05v1.32c-.01.09.05.18.14.19.02,0,.03,0,.05,0h2.29c.05,0,.11.03.12.08,0,.01,0,.02,0,.04.01.4,0,.79-.05,1.19-.05.28-.11.56-.2.83-.15.49-.46.91-.88,1.2-.5.33-1.09.5-1.69.48-.59.02-1.17-.15-1.66-.48-.45-.29-.78-.74-.92-1.26-.11-.34-.18-.69-.2-1.05-.02-.3-.04-.6-.05-.9-.01-.36-.02-.79-.02-1.29,0-.43,0-.86.02-1.29,0-.3.03-.6.05-.9.02-.36.09-.71.2-1.05.17-.57.53-1.06,1.02-1.39.44-.35,1-.52,1.57-.49.56-.03,1.11.12,1.57.42.46.32.82.76,1.05,1.27.07.13.15.16.27.1l1.43-.59c.09-.05.12-.16.08-.24,0-.01-.01-.02-.02-.03-.17-.37-.39-.71-.64-1.02-.27-.32-.58-.61-.93-.83-.38-.25-.8-.44-1.24-.57-.51-.14-1.04-.21-1.57-.2m-15.63,8.02c-2.32,0-4.17.12-5.91.12-1.58,0-3.15,0-4.14-.04v1.14l1.5.27c1.02.2,1.61.67,1.61,3.11v15.52c0,2.44-.59,2.91-1.61,3.11l-1.5.27v1.14c1.06-.04,2.91-.12,4.76-.12s4.06.08,5.04.12v-1.14l-2.05-.27c-1.06-.16-1.61-.67-1.61-3.11v-6.58c.95.08,1.77.08,3.03.08,1.72,3.18,3.72,6.2,5.99,9.02,1.32,1.54,3.26,2.39,5.28,2.33.62.01,1.23-.09,1.81-.32v-1.02c-1.51-.16-2.9-.91-3.86-2.09-2.29-2.56-4.3-5.36-5.99-8.35,3.15-.76,5.41-3.5,5.55-6.74,0-4.41-3.43-6.46-7.92-6.46h0Zm-.71,1.78c3.31,0,5.28,1.73,5.28,4.88s-2.13,5.2-5.63,5.2c-.95,0-1.89-.03-2.84-.12v-9.89c.91-.08,2.13-.08,3.19-.08h0Z"/>
    </g>
  </g>
</svg>